<?xml version="1.0" standalone="no"?>
<!DOCTYPE svg PUBLIC "-//W3C//DTD SVG 20010904//EN"
 "http://www.w3.org/TR/2001/REC-SVG-20010904/DTD/svg10.dtd">
<svg version="1.0" xmlns="http://www.w3.org/2000/svg"
 width="971.000000pt" height="1280.000000pt" viewBox="0 0 971.000000 1280.000000"
 preserveAspectRatio="xMidYMid meet">
<metadata>
Created by potrace 1.15, written by Peter Selinger 2001-2017
</metadata>
<g transform="translate(0.000000,1280.000000) scale(0.100000,-0.100000)"
fill="#000000" stroke="none">
<path d="M7496 12739 c-73 -81 -235 -310 -381 -539 -285 -446 -466 -714 -724
-1070 -486 -672 -967 -1254 -1156 -1400 -35 -27 -82 -51 -130 -66 -89 -28
-290 -69 -390 -79 -301 -30 -611 -285 -1325 -1090 -452 -510 -605 -614 -1225
-840 -431 -157 -712 -300 -926 -471 -77 -61 -223 -221 -278 -303 -29 -43 -36
-64 -39 -115 -8 -137 116 -301 368 -488 169 -125 272 -187 627 -379 175 -95
319 -173 321 -174 1 -1 -27 -107 -63 -236 -145 -510 -192 -743 -214 -1054 -19
-263 -80 -475 -234 -815 -251 -553 -535 -1604 -626 -2316 -10 -82 -26 -167
-35 -188 -22 -52 -129 -213 -208 -314 -263 -331 -634 -697 -793 -780 l-40 -21
4238 -1 4238 0 -5 63 c-3 34 -8 102 -11 152 -16 247 -71 543 -115 622 -16 28
-34 80 -40 115 -31 191 12 752 86 1126 32 165 67 278 114 372 100 202 140 436
120 705 -25 326 -88 566 -264 995 -177 436 -210 652 -211 1390 0 701 32 981
146 1267 83 208 161 497 224 828 79 415 185 736 356 1085 140 286 273 480 413
602 45 39 103 96 129 127 191 223 300 620 256 938 -14 101 -47 201 -114 340
-115 241 -219 347 -337 346 -48 -1 -76 -14 -179 -87 -87 -62 -146 -56 -320 29
-61 30 -117 55 -124 55 -33 0 -40 -32 -40 -174 -1 -151 -11 -193 -58 -245 -31
-34 -83 -54 -106 -41 -44 23 -50 104 -25 320 30 261 15 595 -36 794 -40 158
-180 407 -371 661 -180 240 -357 415 -420 415 -9 0 -42 -28 -73 -61z"/>
</g>
</svg>
